<svg width="181" height="152" viewBox="0 0 181 152" fill="none" xmlns="http://www.w3.org/2000/svg">
<path fill-rule="evenodd" clip-rule="evenodd" d="M162.498 119.702L78.666 104.92C78.063 104.814 77.676 104.143 77.804 103.422L92.51 20.019C92.638 19.297 93.23 18.799 93.832 18.906L177.664 33.687C178.268 33.794 178.652 34.463 178.525 35.186L163.819 118.589C163.692 119.309 163.101 119.809 162.498 119.702Z" stroke="#60A5FA" stroke-width="1.9" stroke-linecap="round" stroke-linejoin="round" stroke-dasharray="11.38 11.38"/>
<path fill-rule="evenodd" clip-rule="evenodd" d="M143.855 129.22L31.319 149.061C30.511 149.204 29.715 148.535 29.544 147.567L9.80301 35.608C9.63201 34.638 10.151 33.739 10.959 33.597L123.495 13.754C124.305 13.611 125.097 14.279 125.268 15.249L145.01 127.209C145.18 128.176 144.665 129.077 143.855 129.219V129.22Z" fill="white" stroke="#60A5FA" stroke-width="1.9" stroke-linecap="round" stroke-linejoin="round" stroke-dasharray="11.38 11.38"/>
<path fill-rule="evenodd" clip-rule="evenodd" d="M87.762 67.88C85.947 67.123 83.242 67.157 81.241 68.553C78.885 70.196 78.122 73.433 79.295 76.555C80.555 79.915 84 81.473 87.015 80.337C90.155 79.155 91.684 75.56 90.863 72.014C90.443 70.201 89.407 68.564 87.763 67.88" fill="#2563EB"/>
<path fill-rule="evenodd" clip-rule="evenodd" d="M106.364 96.93C102.652 92.5437 98.5583 88.4946 94.132 84.83C93.462 84.275 92.476 84.55 92.006 85.206L85.716 93.979C85.376 94.453 83.453 97.979 82.857 97.966C82.175 97.952 79.217 94.202 78.737 93.686L64.056 77.88C63.196 76.954 61.974 77.24 61.458 78.338C57.517 86.748 56.154 96.236 54.364 105.735L47.247 65.375C47.247 65.375 83.517 58.84 99.751 55.925C102.113 69.921 104.924 82.814 106.364 96.929V96.93ZM111.326 101.025C111.336 100.918 106.186 68.782 103.453 52.815C103.317 52.027 102.782 51.625 102.198 51.545C101.905 51.381 101.563 51.3278 101.234 51.395L47.152 61.105C47.084 61.116 47.026 61.14 46.964 61.16L43.904 61.7C42.952 61.867 42.604 62.718 42.726 63.498C42.717 63.6361 42.7248 63.7748 42.749 63.911L51.464 113.337C51.583 114.012 52.724 113.731 53.381 113.617C65.743 111.468 90.874 107.42 110.845 103.515C111.818 103.167 111.329 101.028 111.326 101.025Z" fill="#2563EB"/>
<path fill-rule="evenodd" clip-rule="evenodd" d="M144.938 13.075C149.306 11.34 149.057 1.105 148.571 0C146.798 1.418 144.938 13.075 144.938 13.075Z" fill="#BFDBFE"/>
<path fill-rule="evenodd" clip-rule="evenodd" d="M153.102 8.15799C151.848 5.01799 142.102 4.60399 141.484 5.03399C140.867 5.46399 150.341 8.86599 153.102 8.15799Z" fill="#BFDBFE"/>
<path fill-rule="evenodd" clip-rule="evenodd" d="M0 121.69C3.573 124.743 12.508 119.744 13.259 118.799C11.177 117.894 0 121.689 0 121.689" fill="#BFDBFE"/>
<path fill-rule="evenodd" clip-rule="evenodd" d="M8.15899 126.614C10.351 124.04 6.16699 115.226 5.49899 114.882C4.83099 114.537 6.24399 124.503 8.15899 126.614Z" fill="#BFDBFE"/>
<path fill-rule="evenodd" clip-rule="evenodd" d="M158.916 145.503C163.616 145.461 167.075 135.823 167.02 134.619C164.856 135.303 158.916 145.503 158.916 145.503Z" fill="#BFDBFE"/>
<path fill-rule="evenodd" clip-rule="evenodd" d="M168.303 143.862C168.267 140.481 159.326 136.579 158.595 136.758C157.865 136.936 165.473 143.527 168.303 143.862Z" fill="#BFDBFE"/>
</svg>
