<svg width="534" height="142" viewBox="0 0 534 142" fill="none" xmlns="http://www.w3.org/2000/svg">
<path d="M21.341 1.982C10.0335 4.53018 0.159261 16.634 0 27.9416C0 34.7898 5.7334 44.664 11.6261 47.5307C18.1558 51.0345 28.667 50.8752 34.0819 47.2122C42.3635 41.7973 45.5487 30.1712 40.4524 22.8452L37.9042 19.3415L34.2412 22.686C32.0115 24.7564 30.8967 27.3045 31.3745 29.6935C32.33 34.4713 28.03 38.6121 22.2966 38.6121C10.1927 38.6121 7.8038 22.5267 18.7928 15.3599C25.6411 10.9006 35.0375 11.8562 48.4154 18.5452L60.36 24.4378L56.5377 32.0824C44.9117 55.016 45.2302 78.5867 57.1748 91.1683C67.5268 101.998 84.5677 103.431 98.742 94.672L105.909 90.2127L110.846 95.4683C117.057 101.998 124.383 102.476 132.824 96.7424L138.557 92.9202L142.539 96.9017C146.202 100.565 147.317 100.724 156.554 99.7684C161.969 99.2906 166.906 98.335 167.384 97.698C167.861 97.2202 169.295 93.0794 170.41 88.7794C173.754 76.0385 181.08 61.5457 187.132 56.2901C198.121 46.7344 201.306 51.0345 196.21 68.2347C189.999 89.2572 192.547 100.724 203.536 100.724C208.154 100.724 215.321 96.5832 218.825 91.9646C220.895 89.0979 221.055 89.0979 222.01 92.4424C223.444 96.5832 230.61 100.724 236.662 100.724C243.033 100.724 252.429 94.672 256.57 87.8238C259.277 83.5238 261.188 81.9311 262.781 82.7274C264.055 83.2052 268.196 84.0015 272.018 84.4793C277.433 84.9571 278.707 85.7534 278.707 88.3016C278.707 90.0535 280.937 93.5572 283.485 96.2647C287.785 100.565 289.218 101.042 294.952 100.246C298.615 99.7684 303.393 98.0165 305.622 96.2647L309.922 93.0794L314.222 96.9017C316.771 98.9721 320.115 100.724 322.026 100.724C327.76 100.724 334.608 95.3091 339.226 87.5053L343.686 79.7015L346.234 83.3645C350.056 88.9386 349.419 90.5312 341.615 93.5572C324.893 99.7684 318.363 112.987 327.441 121.587C330.626 124.613 333.174 125.409 339.226 125.25C352.923 125.091 363.116 113.943 363.116 99.2906C363.116 95.1498 363.912 92.7609 365.664 92.1239C369.168 90.8498 369.486 90.8498 369.486 93.5572C369.486 94.8313 371.238 97.061 373.468 98.4943C378.405 101.68 385.253 100.565 392.26 95.6276C396.401 92.6016 397.038 92.6016 396.083 94.9906C395.446 96.5832 394.968 98.6536 394.968 99.7684C394.968 100.883 387.96 104.546 379.52 107.891C361.523 115.057 353.56 121.428 353.56 129.232C353.56 132.098 354.993 135.602 356.745 137.354C367.575 148.184 387.801 138.31 398.631 116.65C401.975 110.12 404.683 107.254 410.735 103.591C415.194 101.202 421.087 99.1314 423.953 99.1314C429.209 99.1314 429.368 98.9721 433.509 85.1164C438.287 69.9865 445.135 57.8827 451.346 53.7419C460.424 47.8492 462.495 54.5382 457.08 71.7384C452.78 85.5941 452.939 91.9646 457.876 96.7424C463.609 102.635 470.458 101.68 478.739 94.035C482.243 91.009 482.243 91.009 486.225 94.9906C498.169 106.935 519.032 99.1314 529.544 78.5867L533.366 70.7829L529.862 69.8273C524.766 68.3939 522.377 68.7125 522.377 70.4643C522.377 73.331 514.573 84.6386 510.91 87.0275C503.584 91.8053 498.965 91.8053 494.347 87.1868C490.684 83.5238 490.206 82.0904 491.162 75.8792C492.117 67.9162 494.984 61.8642 500.08 56.4493C503.903 52.4678 510.432 51.8308 512.503 55.3345C513.617 57.4049 514.732 57.5642 518.077 56.2901C523.332 54.2197 523.492 52.7863 518.555 47.0529C515.369 43.3899 513.458 42.5936 507.566 42.5936C495.143 42.5936 486.543 51.6715 480.969 70.3051C479.217 76.0385 475.873 83.3645 473.324 86.3905C469.343 91.009 468.228 91.6461 466.158 89.8942C463.928 87.9831 464.087 86.3905 467.591 73.9681C472.528 56.1308 472.528 50.7159 467.432 45.7788C462.972 41.1603 456.92 40.6825 449.913 44.3455C446.887 45.9381 444.976 46.0974 444.657 45.1418C444.339 44.1862 441.791 43.3899 438.765 43.3899H433.668L429.368 58.8383C426.979 67.4384 423.316 77.3126 421.246 80.8163C417.264 87.6645 409.779 95.4683 408.505 94.035C408.027 93.7165 410.575 82.7274 414.079 69.8273C417.583 56.9271 420.45 45.6196 420.45 44.664C420.45 43.8677 418.22 43.3899 415.353 43.7084C410.894 44.1862 410.098 44.9825 407.549 52.4678C403.09 65.6865 394.968 79.5422 388.279 85.7534C377.608 95.3091 376.494 90.2127 383.82 63.2976C386.527 53.5826 388.597 45.3011 388.597 44.5048C388.597 43.8677 386.208 43.3899 383.183 43.3899C378.245 43.3899 377.768 43.8677 376.812 48.8048C373.627 65.368 364.867 83.2052 359.771 83.2052C357.223 83.2052 345.597 63.4568 345.597 59.1568C345.597 52.9456 350.693 50.0789 354.834 54.2197C357.064 56.4493 358.497 56.7679 361.204 55.653C365.505 53.7419 365.664 51.1937 361.682 46.4159C357.064 40.6825 345.597 41.001 339.704 47.0529C335.563 51.0345 335.245 52.3086 335.245 63.9346C335.245 75.4014 334.767 77.1533 330.467 83.5238C325.371 90.6905 321.389 92.2831 320.434 87.6645C319.956 85.5941 325.371 63.7754 330.626 46.0974C331.263 43.8677 330.467 43.3899 326.008 43.3899C322.823 43.3899 320.115 44.1862 319.797 45.1418C319.478 46.2566 317.567 45.7788 314.382 44.027C303.552 37.8158 290.652 45.7788 281.415 64.0939C278.707 69.8273 275.044 74.6051 273.611 74.9236C269.151 75.7199 265.807 68.3939 264.851 55.653L263.896 43.8677L259.596 45.4603C255.614 47.0529 255.136 48.0085 254.34 57.5642C252.907 72.694 250.359 80.02 244.466 85.9127C238.414 91.9646 235.707 92.4424 231.725 87.9831C226.788 82.5682 229.495 69.3495 240.007 45.3011C240.484 44.027 239.051 43.3899 235.229 43.3899C230.132 43.3899 229.495 43.8677 225.673 52.4678C223.443 57.5642 220.577 65.5272 219.143 70.1458C216.277 80.1793 211.18 88.7794 207.517 90.2127C202.103 92.2831 201.784 88.4609 206.084 71.5792C210.703 53.5826 210.384 49.1233 203.536 44.3455C198.758 41.001 194.617 41.1603 187.45 44.8233C182.673 47.2122 181.558 47.3715 181.558 45.4603C181.558 43.8677 180.124 43.3899 176.461 43.7084C172.002 44.1862 171.365 44.9825 169.295 52.1493C162.924 75.2422 160.535 81.7719 156.713 86.2312C147.794 96.9017 146.839 90.5312 153.687 65.5272C156.713 54.2197 159.261 44.5048 159.261 44.1862C159.261 43.7084 156.713 43.3899 153.687 43.3899C150.661 43.3899 148.113 44.1862 148.113 44.9825C148.113 45.9381 146.043 45.6196 143.335 44.1862C137.442 41.1603 133.142 41.1603 126.294 44.5048C119.605 47.5307 112.757 56.6086 108.935 66.9606C102.405 84.7978 83.9307 94.3535 70.0749 87.1868C57.4933 80.657 56.06 58.042 66.8897 37.1787L70.0749 30.8083L77.401 33.9935C86.7974 38.1343 99.8568 39.5677 107.183 37.1787C120.242 32.7194 125.179 18.3859 116.898 8.51171C108.138 -1.84027 89.6641 -1.36249 75.3306 9.46728L67.8453 15.2007L56.697 9.46728C39.8153 0.867169 32.1708 -0.725438 21.341 1.982ZM107.024 14.2451C110.846 17.5896 110.687 23.8008 106.864 25.8712C102.246 28.2601 93.3271 27.7823 86.0011 24.9156C78.8343 22.0489 78.3565 21.0933 82.4973 17.4303C89.027 11.3784 102.086 9.62654 107.024 14.2451ZM142.061 56.9271C145.565 64.7309 136.487 84.6386 127.25 89.7349C123.268 91.8053 118.172 89.0979 116.898 84.0015C115.624 78.5867 120.561 64.7309 126.135 58.3605C132.187 51.5122 139.194 50.8752 142.061 56.9271ZM313.585 57.0864C316.93 64.5717 309.285 83.046 300.207 88.9386C296.544 91.3276 295.907 91.3276 292.244 88.9386C287.467 85.7534 287.148 80.8163 290.811 69.9865C295.907 54.8567 309.126 47.3715 313.585 57.0864ZM351.967 103.591C351.967 110.12 339.386 118.561 335.086 114.898C331.9 112.191 334.767 108.05 342.73 104.228C351.171 100.087 351.967 100.087 351.967 103.591ZM384.297 121.587C378.564 130.347 370.282 134.487 365.027 131.302C361.204 128.754 365.186 124.295 374.901 119.676C388.12 113.624 389.394 113.783 384.297 121.587Z" fill="#3B82F6"/>
</svg>
